<mxfile host="Electron" modified="2023-05-27T15:33:22.417Z" agent="Mozilla/5.0 (Macintosh; Intel Mac OS X 10_15_7) AppleWebKit/537.36 (KHTML, like Gecko) draw.io/21.2.1 Chrome/112.0.5615.87 Electron/24.1.2 Safari/537.36" etag="v9Xf8OoNRhyRdgFOqY47" version="21.2.1" type="device">
  <diagram name="Page-1" id="H1nZVYqxkzLZFgEqRADx">
    <mxGraphModel dx="-324" dy="3057" grid="1" gridSize="10" guides="1" tooltips="1" connect="1" arrows="1" fold="1" page="1" pageScale="1" pageWidth="850" pageHeight="1100" math="0" shadow="0">
      <root>
        <mxCell id="0" />
        <mxCell id="1" parent="0" />
        <mxCell id="AsBp8XiL8Dx4Y6rQVwFH-10909" value="R, W: 123, H: 72, ORDER: 19, GC: {31, 21, 32, 10, 11, 17, 22, 12, 5, 27, 3, 9, 41, 40, 6, 15, 4, 23, 19} " style="text;html=1;strokeColor=none;fillColor=none;align=center;verticalAlign=middle;whiteSpace=wrap;rounded=0;flipV=1;" parent="1" vertex="1">
          <mxGeometry x="2610" width="1230" height="30" as="geometry" />
        </mxCell>
        <mxCell id="AsBp8XiL8Dx4Y6rQVwFH-16451" value="R, W: 123, H: 117, ORDER: 20, GC: {55, 29, 39, 19, 10, 9, 40, 7, 21, 62, 13, 8, 6, 2, 12, 1, 4, 38, 11, 23} " style="text;html=1;strokeColor=none;fillColor=none;align=center;verticalAlign=middle;whiteSpace=wrap;rounded=0;flipV=1;" parent="1" vertex="1">
          <mxGeometry x="2592.5" y="890" width="1230" height="30" as="geometry" />
        </mxCell>
        <mxCell id="AsBp8XiL8Dx4Y6rQVwFH-16493" value="R, W: 123, H: 75, ORDER: 20, GC: {25, 14, 12, 20, 5, 7, 11, 3, 8, 6, 1, 18, 34, 2, 16, 23, 50, 9, 41, 32} " style="text;html=1;strokeColor=none;fillColor=none;align=center;verticalAlign=middle;whiteSpace=wrap;rounded=0;flipV=1;" parent="1" vertex="1">
          <mxGeometry x="2617.5" y="2280" width="1230" height="30" as="geometry" />
        </mxCell>
        <mxCell id="AsBp8XiL8Dx4Y6rQVwFH-38799" value="R, W: 123, H: 79, ORDER: 22, GC: {37, 32, 26, 28, 24, 2, 30, 5, 27, 10, 14, 9, 21, 42, 20, 7, 6, 4, 15, 3, 12, 13} " style="text;html=1;strokeColor=none;fillColor=none;align=center;verticalAlign=middle;whiteSpace=wrap;rounded=0;flipV=1;" parent="1" vertex="1">
          <mxGeometry x="2627.5" y="3160" width="1230" height="30" as="geometry" />
        </mxCell>
        <mxCell id="5wZEhNf2xmxFaOo6h8vf-1" value="" style="group;flipV=1;" vertex="1" connectable="0" parent="1">
          <mxGeometry x="2610" y="50" width="1230" height="720" as="geometry" />
        </mxCell>
        <mxCell id="761dnnyQ54j-Cl0NHfQN-10910" value="31" style="rounded=0;whiteSpace=wrap;html=1;" parent="5wZEhNf2xmxFaOo6h8vf-1" vertex="1">
          <mxGeometry y="410" width="310" height="310" as="geometry" />
        </mxCell>
        <mxCell id="761dnnyQ54j-Cl0NHfQN-10911" value="21" style="rounded=0;whiteSpace=wrap;html=1;" parent="5wZEhNf2xmxFaOo6h8vf-1" vertex="1">
          <mxGeometry x="310" y="510" width="210" height="210" as="geometry" />
        </mxCell>
        <mxCell id="761dnnyQ54j-Cl0NHfQN-10912" value="32" style="rounded=0;whiteSpace=wrap;html=1;" parent="5wZEhNf2xmxFaOo6h8vf-1" vertex="1">
          <mxGeometry x="520" y="400" width="320" height="320" as="geometry" />
        </mxCell>
        <mxCell id="761dnnyQ54j-Cl0NHfQN-10913" value="10" style="rounded=0;whiteSpace=wrap;html=1;" parent="5wZEhNf2xmxFaOo6h8vf-1" vertex="1">
          <mxGeometry x="310" y="410" width="100" height="100" as="geometry" />
        </mxCell>
        <mxCell id="761dnnyQ54j-Cl0NHfQN-10914" value="11" style="rounded=0;whiteSpace=wrap;html=1;" parent="5wZEhNf2xmxFaOo6h8vf-1" vertex="1">
          <mxGeometry x="410" y="400" width="110" height="110" as="geometry" />
        </mxCell>
        <mxCell id="761dnnyQ54j-Cl0NHfQN-10915" value="17" style="rounded=0;whiteSpace=wrap;html=1;" parent="5wZEhNf2xmxFaOo6h8vf-1" vertex="1">
          <mxGeometry x="840" y="550" width="170" height="170" as="geometry" />
        </mxCell>
        <mxCell id="761dnnyQ54j-Cl0NHfQN-10916" value="22" style="rounded=0;whiteSpace=wrap;html=1;" parent="5wZEhNf2xmxFaOo6h8vf-1" vertex="1">
          <mxGeometry x="1010" y="500" width="220" height="220" as="geometry" />
        </mxCell>
        <mxCell id="761dnnyQ54j-Cl0NHfQN-10917" value="12" style="rounded=0;whiteSpace=wrap;html=1;" parent="5wZEhNf2xmxFaOo6h8vf-1" vertex="1">
          <mxGeometry x="840" y="430" width="120" height="120" as="geometry" />
        </mxCell>
        <mxCell id="761dnnyQ54j-Cl0NHfQN-10918" value="5" style="rounded=0;whiteSpace=wrap;html=1;" parent="5wZEhNf2xmxFaOo6h8vf-1" vertex="1">
          <mxGeometry x="960" y="500" width="50" height="50" as="geometry" />
        </mxCell>
        <mxCell id="761dnnyQ54j-Cl0NHfQN-10919" value="27" style="rounded=0;whiteSpace=wrap;html=1;" parent="5wZEhNf2xmxFaOo6h8vf-1" vertex="1">
          <mxGeometry x="960" y="230" width="270" height="270" as="geometry" />
        </mxCell>
        <mxCell id="761dnnyQ54j-Cl0NHfQN-10920" value="3" style="rounded=0;whiteSpace=wrap;html=1;" parent="5wZEhNf2xmxFaOo6h8vf-1" vertex="1">
          <mxGeometry x="840" y="400" width="30" height="30" as="geometry" />
        </mxCell>
        <mxCell id="761dnnyQ54j-Cl0NHfQN-10921" value="9" style="rounded=0;whiteSpace=wrap;html=1;" parent="5wZEhNf2xmxFaOo6h8vf-1" vertex="1">
          <mxGeometry x="870" y="340" width="90" height="90" as="geometry" />
        </mxCell>
        <mxCell id="761dnnyQ54j-Cl0NHfQN-10922" value="41" style="rounded=0;whiteSpace=wrap;html=1;" parent="5wZEhNf2xmxFaOo6h8vf-1" vertex="1">
          <mxGeometry width="410" height="410" as="geometry" />
        </mxCell>
        <mxCell id="761dnnyQ54j-Cl0NHfQN-10923" value="40" style="rounded=0;whiteSpace=wrap;html=1;" parent="5wZEhNf2xmxFaOo6h8vf-1" vertex="1">
          <mxGeometry x="410" width="400" height="400" as="geometry" />
        </mxCell>
        <mxCell id="761dnnyQ54j-Cl0NHfQN-10924" value="6" style="rounded=0;whiteSpace=wrap;html=1;" parent="5wZEhNf2xmxFaOo6h8vf-1" vertex="1">
          <mxGeometry x="810" y="340" width="60" height="60" as="geometry" />
        </mxCell>
        <mxCell id="761dnnyQ54j-Cl0NHfQN-10925" value="15" style="rounded=0;whiteSpace=wrap;html=1;" parent="5wZEhNf2xmxFaOo6h8vf-1" vertex="1">
          <mxGeometry x="810" y="190" width="150" height="150" as="geometry" />
        </mxCell>
        <mxCell id="761dnnyQ54j-Cl0NHfQN-10926" value="4" style="rounded=0;whiteSpace=wrap;html=1;" parent="5wZEhNf2xmxFaOo6h8vf-1" vertex="1">
          <mxGeometry x="960" y="190" width="40" height="40" as="geometry" />
        </mxCell>
        <mxCell id="761dnnyQ54j-Cl0NHfQN-10927" value="23" style="rounded=0;whiteSpace=wrap;html=1;" parent="5wZEhNf2xmxFaOo6h8vf-1" vertex="1">
          <mxGeometry x="1000" width="230" height="230" as="geometry" />
        </mxCell>
        <mxCell id="761dnnyQ54j-Cl0NHfQN-10928" value="19" style="rounded=0;whiteSpace=wrap;html=1;" parent="5wZEhNf2xmxFaOo6h8vf-1" vertex="1">
          <mxGeometry x="810" width="190" height="190" as="geometry" />
        </mxCell>
        <mxCell id="5wZEhNf2xmxFaOo6h8vf-2" value="" style="group;flipV=1;" vertex="1" connectable="0" parent="1">
          <mxGeometry x="2592.5" y="940" width="1230" height="1170" as="geometry" />
        </mxCell>
        <mxCell id="761dnnyQ54j-Cl0NHfQN-16452" value="55" style="rounded=0;whiteSpace=wrap;html=1;" parent="5wZEhNf2xmxFaOo6h8vf-2" vertex="1">
          <mxGeometry y="620" width="550" height="550" as="geometry" />
        </mxCell>
        <mxCell id="761dnnyQ54j-Cl0NHfQN-16453" value="29" style="rounded=0;whiteSpace=wrap;html=1;" parent="5wZEhNf2xmxFaOo6h8vf-2" vertex="1">
          <mxGeometry x="550" y="880" width="290" height="290" as="geometry" />
        </mxCell>
        <mxCell id="761dnnyQ54j-Cl0NHfQN-16454" value="39" style="rounded=0;whiteSpace=wrap;html=1;" parent="5wZEhNf2xmxFaOo6h8vf-2" vertex="1">
          <mxGeometry x="840" y="780" width="390" height="390" as="geometry" />
        </mxCell>
        <mxCell id="761dnnyQ54j-Cl0NHfQN-16455" value="19" style="rounded=0;whiteSpace=wrap;html=1;" parent="5wZEhNf2xmxFaOo6h8vf-2" vertex="1">
          <mxGeometry x="550" y="690" width="190" height="190" as="geometry" />
        </mxCell>
        <mxCell id="761dnnyQ54j-Cl0NHfQN-16456" value="10" style="rounded=0;whiteSpace=wrap;html=1;" parent="5wZEhNf2xmxFaOo6h8vf-2" vertex="1">
          <mxGeometry x="740" y="780" width="100" height="100" as="geometry" />
        </mxCell>
        <mxCell id="761dnnyQ54j-Cl0NHfQN-16457" value="9" style="rounded=0;whiteSpace=wrap;html=1;" parent="5wZEhNf2xmxFaOo6h8vf-2" vertex="1">
          <mxGeometry x="740" y="690" width="90" height="90" as="geometry" />
        </mxCell>
        <mxCell id="761dnnyQ54j-Cl0NHfQN-16458" value="40" style="rounded=0;whiteSpace=wrap;html=1;" parent="5wZEhNf2xmxFaOo6h8vf-2" vertex="1">
          <mxGeometry x="830" y="380" width="400" height="400" as="geometry" />
        </mxCell>
        <mxCell id="761dnnyQ54j-Cl0NHfQN-16459" value="7" style="rounded=0;whiteSpace=wrap;html=1;" parent="5wZEhNf2xmxFaOo6h8vf-2" vertex="1">
          <mxGeometry x="550" y="620" width="70" height="70" as="geometry" />
        </mxCell>
        <mxCell id="761dnnyQ54j-Cl0NHfQN-16460" value="21" style="rounded=0;whiteSpace=wrap;html=1;" parent="5wZEhNf2xmxFaOo6h8vf-2" vertex="1">
          <mxGeometry x="620" y="480" width="210" height="210" as="geometry" />
        </mxCell>
        <mxCell id="761dnnyQ54j-Cl0NHfQN-16461" value="62" style="rounded=0;whiteSpace=wrap;html=1;" parent="5wZEhNf2xmxFaOo6h8vf-2" vertex="1">
          <mxGeometry width="620" height="620" as="geometry" />
        </mxCell>
        <mxCell id="761dnnyQ54j-Cl0NHfQN-16462" value="13" style="rounded=0;whiteSpace=wrap;html=1;" parent="5wZEhNf2xmxFaOo6h8vf-2" vertex="1">
          <mxGeometry x="620" y="350" width="130" height="130" as="geometry" />
        </mxCell>
        <mxCell id="761dnnyQ54j-Cl0NHfQN-16463" value="8" style="rounded=0;whiteSpace=wrap;html=1;" parent="5wZEhNf2xmxFaOo6h8vf-2" vertex="1">
          <mxGeometry x="750" y="400" width="80" height="80" as="geometry" />
        </mxCell>
        <mxCell id="761dnnyQ54j-Cl0NHfQN-16464" value="6" style="rounded=0;whiteSpace=wrap;html=1;" parent="5wZEhNf2xmxFaOo6h8vf-2" vertex="1">
          <mxGeometry x="750" y="340" width="60" height="60" as="geometry" />
        </mxCell>
        <mxCell id="761dnnyQ54j-Cl0NHfQN-16465" value="2" style="rounded=0;whiteSpace=wrap;html=1;" parent="5wZEhNf2xmxFaOo6h8vf-2" vertex="1">
          <mxGeometry x="810" y="380" width="20" height="20" as="geometry" />
        </mxCell>
        <mxCell id="761dnnyQ54j-Cl0NHfQN-16466" value="12" style="rounded=0;whiteSpace=wrap;html=1;" parent="5wZEhNf2xmxFaOo6h8vf-2" vertex="1">
          <mxGeometry x="620" y="230" width="120" height="120" as="geometry" />
        </mxCell>
        <mxCell id="761dnnyQ54j-Cl0NHfQN-16467" value="1" style="rounded=0;whiteSpace=wrap;html=1;" parent="5wZEhNf2xmxFaOo6h8vf-2" vertex="1">
          <mxGeometry x="740" y="340" width="10" height="10" as="geometry" />
        </mxCell>
        <mxCell id="761dnnyQ54j-Cl0NHfQN-16468" value="4" style="rounded=0;whiteSpace=wrap;html=1;" parent="5wZEhNf2xmxFaOo6h8vf-2" vertex="1">
          <mxGeometry x="810" y="340" width="40" height="40" as="geometry" />
        </mxCell>
        <mxCell id="761dnnyQ54j-Cl0NHfQN-16469" value="38" style="rounded=0;whiteSpace=wrap;html=1;" parent="5wZEhNf2xmxFaOo6h8vf-2" vertex="1">
          <mxGeometry x="850" width="380" height="380" as="geometry" />
        </mxCell>
        <mxCell id="761dnnyQ54j-Cl0NHfQN-16470" value="11" style="rounded=0;whiteSpace=wrap;html=1;" parent="5wZEhNf2xmxFaOo6h8vf-2" vertex="1">
          <mxGeometry x="740" y="230" width="110" height="110" as="geometry" />
        </mxCell>
        <mxCell id="761dnnyQ54j-Cl0NHfQN-16471" value="23" style="rounded=0;whiteSpace=wrap;html=1;" parent="5wZEhNf2xmxFaOo6h8vf-2" vertex="1">
          <mxGeometry x="620" width="230" height="230" as="geometry" />
        </mxCell>
        <mxCell id="5wZEhNf2xmxFaOo6h8vf-3" value="" style="group;flipV=1;" vertex="1" connectable="0" parent="1">
          <mxGeometry x="2617.5" y="2330" width="1230" height="750" as="geometry" />
        </mxCell>
        <mxCell id="761dnnyQ54j-Cl0NHfQN-16494" value="25" style="rounded=0;whiteSpace=wrap;html=1;" parent="5wZEhNf2xmxFaOo6h8vf-3" vertex="1">
          <mxGeometry y="500" width="250" height="250" as="geometry" />
        </mxCell>
        <mxCell id="761dnnyQ54j-Cl0NHfQN-16495" value="14" style="rounded=0;whiteSpace=wrap;html=1;" parent="5wZEhNf2xmxFaOo6h8vf-3" vertex="1">
          <mxGeometry x="250" y="610" width="140" height="140" as="geometry" />
        </mxCell>
        <mxCell id="761dnnyQ54j-Cl0NHfQN-16496" value="12" style="rounded=0;whiteSpace=wrap;html=1;" parent="5wZEhNf2xmxFaOo6h8vf-3" vertex="1">
          <mxGeometry x="390" y="630" width="120" height="120" as="geometry" />
        </mxCell>
        <mxCell id="761dnnyQ54j-Cl0NHfQN-16497" value="20" style="rounded=0;whiteSpace=wrap;html=1;" parent="5wZEhNf2xmxFaOo6h8vf-3" vertex="1">
          <mxGeometry x="510" y="550" width="200" height="200" as="geometry" />
        </mxCell>
        <mxCell id="761dnnyQ54j-Cl0NHfQN-16498" value="5" style="rounded=0;whiteSpace=wrap;html=1;" parent="5wZEhNf2xmxFaOo6h8vf-3" vertex="1">
          <mxGeometry x="390" y="580" width="50" height="50" as="geometry" />
        </mxCell>
        <mxCell id="761dnnyQ54j-Cl0NHfQN-16499" value="7" style="rounded=0;whiteSpace=wrap;html=1;" parent="5wZEhNf2xmxFaOo6h8vf-3" vertex="1">
          <mxGeometry x="440" y="560" width="70" height="70" as="geometry" />
        </mxCell>
        <mxCell id="761dnnyQ54j-Cl0NHfQN-16500" value="11" style="rounded=0;whiteSpace=wrap;html=1;" parent="5wZEhNf2xmxFaOo6h8vf-3" vertex="1">
          <mxGeometry x="250" y="500" width="110" height="110" as="geometry" />
        </mxCell>
        <mxCell id="761dnnyQ54j-Cl0NHfQN-16501" value="3" style="rounded=0;whiteSpace=wrap;html=1;" parent="5wZEhNf2xmxFaOo6h8vf-3" vertex="1">
          <mxGeometry x="360" y="580" width="30" height="30" as="geometry" />
        </mxCell>
        <mxCell id="761dnnyQ54j-Cl0NHfQN-16502" value="8" style="rounded=0;whiteSpace=wrap;html=1;" parent="5wZEhNf2xmxFaOo6h8vf-3" vertex="1">
          <mxGeometry x="360" y="500" width="80" height="80" as="geometry" />
        </mxCell>
        <mxCell id="761dnnyQ54j-Cl0NHfQN-16503" value="6" style="rounded=0;whiteSpace=wrap;html=1;" parent="5wZEhNf2xmxFaOo6h8vf-3" vertex="1">
          <mxGeometry x="440" y="500" width="60" height="60" as="geometry" />
        </mxCell>
        <mxCell id="761dnnyQ54j-Cl0NHfQN-16504" value="1" style="rounded=0;whiteSpace=wrap;html=1;" parent="5wZEhNf2xmxFaOo6h8vf-3" vertex="1">
          <mxGeometry x="500" y="550" width="10" height="10" as="geometry" />
        </mxCell>
        <mxCell id="761dnnyQ54j-Cl0NHfQN-16505" value="18" style="rounded=0;whiteSpace=wrap;html=1;" parent="5wZEhNf2xmxFaOo6h8vf-3" vertex="1">
          <mxGeometry x="710" y="570" width="180" height="180" as="geometry" />
        </mxCell>
        <mxCell id="761dnnyQ54j-Cl0NHfQN-16506" value="34" style="rounded=0;whiteSpace=wrap;html=1;" parent="5wZEhNf2xmxFaOo6h8vf-3" vertex="1">
          <mxGeometry x="890" y="410" width="340" height="340" as="geometry" />
        </mxCell>
        <mxCell id="761dnnyQ54j-Cl0NHfQN-16507" value="2" style="rounded=0;whiteSpace=wrap;html=1;" parent="5wZEhNf2xmxFaOo6h8vf-3" vertex="1">
          <mxGeometry x="710" y="550" width="20" height="20" as="geometry" />
        </mxCell>
        <mxCell id="761dnnyQ54j-Cl0NHfQN-16508" value="16" style="rounded=0;whiteSpace=wrap;html=1;" parent="5wZEhNf2xmxFaOo6h8vf-3" vertex="1">
          <mxGeometry x="730" y="410" width="160" height="160" as="geometry" />
        </mxCell>
        <mxCell id="761dnnyQ54j-Cl0NHfQN-16509" value="23" style="rounded=0;whiteSpace=wrap;html=1;" parent="5wZEhNf2xmxFaOo6h8vf-3" vertex="1">
          <mxGeometry x="500" y="320" width="230" height="230" as="geometry" />
        </mxCell>
        <mxCell id="761dnnyQ54j-Cl0NHfQN-16510" value="50" style="rounded=0;whiteSpace=wrap;html=1;" parent="5wZEhNf2xmxFaOo6h8vf-3" vertex="1">
          <mxGeometry width="500" height="500" as="geometry" />
        </mxCell>
        <mxCell id="761dnnyQ54j-Cl0NHfQN-16511" value="9" style="rounded=0;whiteSpace=wrap;html=1;" parent="5wZEhNf2xmxFaOo6h8vf-3" vertex="1">
          <mxGeometry x="730" y="320" width="90" height="90" as="geometry" />
        </mxCell>
        <mxCell id="761dnnyQ54j-Cl0NHfQN-16512" value="41" style="rounded=0;whiteSpace=wrap;html=1;" parent="5wZEhNf2xmxFaOo6h8vf-3" vertex="1">
          <mxGeometry x="820" width="410" height="410" as="geometry" />
        </mxCell>
        <mxCell id="761dnnyQ54j-Cl0NHfQN-16513" value="32" style="rounded=0;whiteSpace=wrap;html=1;" parent="5wZEhNf2xmxFaOo6h8vf-3" vertex="1">
          <mxGeometry x="500" width="320" height="320" as="geometry" />
        </mxCell>
        <mxCell id="5wZEhNf2xmxFaOo6h8vf-4" value="" style="group;flipV=1;" vertex="1" connectable="0" parent="1">
          <mxGeometry x="2627.5" y="3210" width="1230" height="790" as="geometry" />
        </mxCell>
        <mxCell id="761dnnyQ54j-Cl0NHfQN-38800" value="37" style="rounded=0;whiteSpace=wrap;html=1;" parent="5wZEhNf2xmxFaOo6h8vf-4" vertex="1">
          <mxGeometry y="420" width="370" height="370" as="geometry" />
        </mxCell>
        <mxCell id="761dnnyQ54j-Cl0NHfQN-38801" value="32" style="rounded=0;whiteSpace=wrap;html=1;" parent="5wZEhNf2xmxFaOo6h8vf-4" vertex="1">
          <mxGeometry x="370" y="470" width="320" height="320" as="geometry" />
        </mxCell>
        <mxCell id="761dnnyQ54j-Cl0NHfQN-38802" value="26" style="rounded=0;whiteSpace=wrap;html=1;" parent="5wZEhNf2xmxFaOo6h8vf-4" vertex="1">
          <mxGeometry x="690" y="530" width="260" height="260" as="geometry" />
        </mxCell>
        <mxCell id="761dnnyQ54j-Cl0NHfQN-38803" value="28" style="rounded=0;whiteSpace=wrap;html=1;" parent="5wZEhNf2xmxFaOo6h8vf-4" vertex="1">
          <mxGeometry x="950" y="510" width="280" height="280" as="geometry" />
        </mxCell>
        <mxCell id="761dnnyQ54j-Cl0NHfQN-38804" value="24" style="rounded=0;whiteSpace=wrap;html=1;" parent="5wZEhNf2xmxFaOo6h8vf-4" vertex="1">
          <mxGeometry x="690" y="290" width="240" height="240" as="geometry" />
        </mxCell>
        <mxCell id="761dnnyQ54j-Cl0NHfQN-38805" value="2" style="rounded=0;whiteSpace=wrap;html=1;" parent="5wZEhNf2xmxFaOo6h8vf-4" vertex="1">
          <mxGeometry x="930" y="510" width="20" height="20" as="geometry" />
        </mxCell>
        <mxCell id="761dnnyQ54j-Cl0NHfQN-38806" value="30" style="rounded=0;whiteSpace=wrap;html=1;" parent="5wZEhNf2xmxFaOo6h8vf-4" vertex="1">
          <mxGeometry x="930" y="210" width="300" height="300" as="geometry" />
        </mxCell>
        <mxCell id="761dnnyQ54j-Cl0NHfQN-38807" value="5" style="rounded=0;whiteSpace=wrap;html=1;" parent="5wZEhNf2xmxFaOo6h8vf-4" vertex="1">
          <mxGeometry x="370" y="420" width="50" height="50" as="geometry" />
        </mxCell>
        <mxCell id="761dnnyQ54j-Cl0NHfQN-38808" value="27" style="rounded=0;whiteSpace=wrap;html=1;" parent="5wZEhNf2xmxFaOo6h8vf-4" vertex="1">
          <mxGeometry x="420" y="200" width="270" height="270" as="geometry" />
        </mxCell>
        <mxCell id="761dnnyQ54j-Cl0NHfQN-38809" value="10" style="rounded=0;whiteSpace=wrap;html=1;" parent="5wZEhNf2xmxFaOo6h8vf-4" vertex="1">
          <mxGeometry x="690" y="190" width="100" height="100" as="geometry" />
        </mxCell>
        <mxCell id="761dnnyQ54j-Cl0NHfQN-38810" value="14" style="rounded=0;whiteSpace=wrap;html=1;" parent="5wZEhNf2xmxFaOo6h8vf-4" vertex="1">
          <mxGeometry x="790" y="150" width="140" height="140" as="geometry" />
        </mxCell>
        <mxCell id="761dnnyQ54j-Cl0NHfQN-38811" value="9" style="rounded=0;whiteSpace=wrap;html=1;" parent="5wZEhNf2xmxFaOo6h8vf-4" vertex="1">
          <mxGeometry x="930" y="120" width="90" height="90" as="geometry" />
        </mxCell>
        <mxCell id="761dnnyQ54j-Cl0NHfQN-38812" value="21" style="rounded=0;whiteSpace=wrap;html=1;" parent="5wZEhNf2xmxFaOo6h8vf-4" vertex="1">
          <mxGeometry x="1020" width="210" height="210" as="geometry" />
        </mxCell>
        <mxCell id="761dnnyQ54j-Cl0NHfQN-38813" value="42" style="rounded=0;whiteSpace=wrap;html=1;" parent="5wZEhNf2xmxFaOo6h8vf-4" vertex="1">
          <mxGeometry width="420" height="420" as="geometry" />
        </mxCell>
        <mxCell id="761dnnyQ54j-Cl0NHfQN-38814" value="20" style="rounded=0;whiteSpace=wrap;html=1;" parent="5wZEhNf2xmxFaOo6h8vf-4" vertex="1">
          <mxGeometry x="420" width="200" height="200" as="geometry" />
        </mxCell>
        <mxCell id="761dnnyQ54j-Cl0NHfQN-38815" value="7" style="rounded=0;whiteSpace=wrap;html=1;" parent="5wZEhNf2xmxFaOo6h8vf-4" vertex="1">
          <mxGeometry x="620" y="130" width="70" height="70" as="geometry" />
        </mxCell>
        <mxCell id="761dnnyQ54j-Cl0NHfQN-38816" value="6" style="rounded=0;whiteSpace=wrap;html=1;" parent="5wZEhNf2xmxFaOo6h8vf-4" vertex="1">
          <mxGeometry x="690" y="130" width="60" height="60" as="geometry" />
        </mxCell>
        <mxCell id="761dnnyQ54j-Cl0NHfQN-38817" value="4" style="rounded=0;whiteSpace=wrap;html=1;" parent="5wZEhNf2xmxFaOo6h8vf-4" vertex="1">
          <mxGeometry x="750" y="150" width="40" height="40" as="geometry" />
        </mxCell>
        <mxCell id="761dnnyQ54j-Cl0NHfQN-38818" value="15" style="rounded=0;whiteSpace=wrap;html=1;" parent="5wZEhNf2xmxFaOo6h8vf-4" vertex="1">
          <mxGeometry x="750" width="150" height="150" as="geometry" />
        </mxCell>
        <mxCell id="761dnnyQ54j-Cl0NHfQN-38819" value="3" style="rounded=0;whiteSpace=wrap;html=1;" parent="5wZEhNf2xmxFaOo6h8vf-4" vertex="1">
          <mxGeometry x="900" y="120" width="30" height="30" as="geometry" />
        </mxCell>
        <mxCell id="761dnnyQ54j-Cl0NHfQN-38820" value="12" style="rounded=0;whiteSpace=wrap;html=1;" parent="5wZEhNf2xmxFaOo6h8vf-4" vertex="1">
          <mxGeometry x="900" width="120" height="120" as="geometry" />
        </mxCell>
        <mxCell id="761dnnyQ54j-Cl0NHfQN-38821" value="13" style="rounded=0;whiteSpace=wrap;html=1;" parent="5wZEhNf2xmxFaOo6h8vf-4" vertex="1">
          <mxGeometry x="620" width="130" height="130" as="geometry" />
        </mxCell>
      </root>
    </mxGraphModel>
  </diagram>
</mxfile>
